<svg xmlns="http://www.w3.org/2000/svg" viewBox="0 0 720 960" role="img" aria-label="UMADIGI JKT48 PM Pack">
  <defs>
    <linearGradient id="foil" x1="0" x2="1" y1="0" y2="1">
      <stop offset="0" stop-color="#ff244f"/>
      <stop offset=".26" stop-color="#ff7a18"/>
      <stop offset=".52" stop-color="#ffd166"/>
      <stop offset=".74" stop-color="#20d6ff"/>
      <stop offset="1" stop-color="#8b5cf6"/>
    </linearGradient>
    <linearGradient id="dark" x1="0" x2="1" y1="0" y2="1">
      <stop offset="0" stop-color="#111827"/>
      <stop offset=".48" stop-color="#0f172a"/>
      <stop offset="1" stop-color="#020617"/>
    </linearGradient>
    <pattern id="dots" width="36" height="36" patternUnits="userSpaceOnUse">
      <circle cx="6" cy="6" r="2.5" fill="#ffffff" opacity=".16"/>
      <circle cx="26" cy="24" r="2" fill="#ffffff" opacity=".1"/>
    </pattern>
    <filter id="shadow" x="-20%" y="-20%" width="140%" height="140%">
      <feDropShadow dx="0" dy="18" stdDeviation="18" flood-color="#020617" flood-opacity=".22"/>
    </filter>
  </defs>

  <rect x="42" y="34" width="636" height="892" rx="48" fill="url(#dark)" filter="url(#shadow)"/>
  <path d="M42 34h636v892H42z" fill="url(#dots)"/>
  <path d="M62 54h596v872H62z" fill="none" stroke="#ffffff" stroke-width="3" opacity=".2"/>

  <path d="M42 34h636v126H42z" fill="url(#foil)" opacity=".94"/>
  <path d="M42 800h636v126H42z" fill="url(#foil)" opacity=".94"/>

  <path d="M70 192c74-56 162-84 264-84 137 0 250 48 338 144v370c-78 91-190 138-336 138-136 0-247-40-334-120z" fill="#ffffff" opacity=".08"/>
  <path d="M92 216c79-58 170-87 274-87 104 0 194 30 270 90v378c-76 62-166 92-270 92-105 0-196-30-274-90z" fill="#ffffff" opacity=".12"/>

  <circle cx="130" cy="236" r="55" fill="#ffffff" opacity=".14"/>
  <circle cx="604" cy="706" r="82" fill="#ff2e63" opacity=".22"/>
  <circle cx="590" cy="252" r="58" fill="#20d6ff" opacity=".2"/>

  <g transform="translate(112 266)">
    <rect x="0" y="0" width="496" height="342" rx="36" fill="#ffffff" opacity=".96"/>
    <rect x="18" y="18" width="460" height="306" rx="28" fill="#fff7ed"/>
    <path d="M18 18h460v78H18z" fill="#ff244f"/>
    <path d="M18 246h460v78H18z" fill="#f97316"/>
    <text x="248" y="70" text-anchor="middle" font-family="Arial, sans-serif" font-size="38" font-weight="900" fill="#ffffff">UMADIGI</text>
    <text x="248" y="178" text-anchor="middle" font-family="Arial, sans-serif" font-size="54" font-weight="900" fill="#111827">JKT48</text>
    <text x="248" y="232" text-anchor="middle" font-family="Arial, sans-serif" font-size="38" font-weight="900" fill="#ef4444">PM PACK</text>
    <text x="248" y="296" text-anchor="middle" font-family="Arial, sans-serif" font-size="26" font-weight="900" fill="#ffffff">5 CARDS INSIDE</text>
  </g>

  <g fill="#ffffff" opacity=".9">
    <path d="M126 690l18 36 40 6-29 28 7 40-36-19-36 19 7-40-29-28 40-6z"/>
    <path d="M580 170l13 26 29 4-21 20 5 29-26-14-26 14 5-29-21-20 29-4z"/>
  </g>

  <path d="M90 82h540" stroke="#ffffff" stroke-width="16" stroke-linecap="round" opacity=".34"/>
  <path d="M112 866h496" stroke="#ffffff" stroke-width="16" stroke-linecap="round" opacity=".34"/>
  <path d="M120 44l16 26 16-26 16 26 16-26 16 26 16-26 16 26 16-26 16 26 16-26 16 26 16-26 16 26 16-26 16 26 16-26 16 26 16-26 16 26 16-26 16 26 16-26 16 26 16-26 16 26 16-26 16 26 16-26 16 26 16-26 16 26" fill="none" stroke="#ffffff" stroke-width="8" opacity=".45"/>
  <path d="M120 916l16-26 16 26 16-26 16 26 16-26 16 26 16-26 16 26 16-26 16 26 16-26 16 26 16-26 16 26 16-26 16 26 16-26 16 26 16-26 16 26 16-26 16 26 16-26 16 26 16-26 16 26 16-26 16 26" fill="none" stroke="#ffffff" stroke-width="8" opacity=".45"/>
</svg>
